<svg width="24" height="26" viewBox="0 0 24 26" fill="none" xmlns="http://www.w3.org/2000/svg">
<path d="M2.3374 15.1698C1.88678 15.1713 1.47556 14.9132 1.28105 14.5067C1.08653 14.1003 1.14351 13.6181 1.4274 13.2681L12.9774 1.36815C13.1558 1.16218 13.4531 1.1072 13.6934 1.23573C13.9337 1.36427 14.053 1.64205 13.9807 1.90481L11.7407 8.92815C11.6067 9.28698 11.6573 9.68878 11.8762 10.0031C12.0951 10.3175 12.4543 10.5044 12.8374 10.5031H21.0041C21.4547 10.5016 21.8659 10.7597 22.0604 11.1662C22.2549 11.5727 22.198 12.0549 21.9141 12.4048L10.3641 24.3048C10.1856 24.5108 9.88835 24.5658 9.64805 24.4372C9.40775 24.3087 9.28846 24.0309 9.36074 23.7681L11.6007 16.7448C11.7348 16.386 11.6842 15.9842 11.4653 15.6698C11.2464 15.3554 10.8871 15.1686 10.5041 15.1698H2.3374" stroke="white" stroke-width="2.33333" stroke-linecap="round" stroke-linejoin="round"/>
</svg>
